<svg xmlns="http://www.w3.org/2000/svg" width="224" height="40" viewBox="0 0 224 40">
    <g fill="none" fill-rule="evenodd">
        <path fill="#FFF" d="M0 0h224v40H0z"/>
        <path fill="#D8D8D8" stroke="#66707F" stroke-width="1.1" d="M11.55 15.095v14.427l1.054.51V15.095H11.55z"/>
        <path fill="#CED4D8" d="M13.154 15.628L25 9.09v14.53l-11.846 7.296z"/>
        <path fill="#D8D8D8" stroke="#202F43" stroke-width="1.1" d="M12.173 14.531l.958.49 10.71-5.864-.964-.53-10.704 5.904z"/>
        <path fill="#D8D8D8" stroke="#202F43" stroke-width="1.1" d="M14.78 18.142l8.61-4.838v.15l.13-.224.69-.387-.82-.48v.768l-8.61 4.844v-.155l-.135.232-.684.385.82.479v-.774zM14.78 20.324l8.61-4.839v.15l.13-.223.69-.387-.82-.48v.768l-8.61 4.844v-.155l-.135.231-.684.385.82.48v-.774zM14.55 22.778l8.61-4.838v.15l.13-.223.689-.388-.82-.479v.768l-8.609 4.844v-.155l-.135.231-.685.385.82.48v-.775zM14.55 24.778l8.61-4.838v.15l.13-.223.689-.388-.82-.479v.768l-8.609 4.844v-.155l-.135.231-.685.385.82.48v-.775z" opacity=".073"/>
        <g>
            <path fill="#D8D8D8" stroke="#66707F" stroke-width="1.1" d="M8.55 20.095v14.427l1.054.51V20.095H8.55z"/>
            <path fill="#CED4D8" d="M10.154 20.628L22 14.09v14.53l-11.846 7.296z"/>
            <path fill="#D8D8D8" stroke="#202F43" stroke-width="1.1" d="M9.173 19.531l.958.49 10.71-5.864-.964-.53-10.704 5.904z"/>
            <path fill="#D8D8D8" stroke="#202F43" stroke-width="1.1" d="M11.78 23.142l8.61-4.838v.15l.13-.224.69-.387-.82-.48v.768l-8.61 4.844v-.155l-.135.232-.684.385.82.479v-.774zM11.78 25.324l8.61-4.839v.15l.13-.223.69-.387-.82-.48v.768l-8.61 4.844v-.155l-.135.231-.684.385.82.48v-.774zM11.55 27.778l8.61-4.838v.15l.13-.223.689-.388-.82-.479v.768l-8.609 4.844v-.155l-.135.231-.685.385.82.48v-.775zM11.55 29.778l8.61-4.838v.15l.13-.223.689-.388-.82-.479v.768l-8.609 4.844v-.155l-.135.231-.685.385.82.48v-.775z" opacity=".073"/>
        </g>
        <text fill="#414141" font-family="Avenir-Black, Avenir" font-size="20" font-weight="700" letter-spacing="1.157">
            <tspan x="33" y="26">Finansielt cv </tspan>
        </text>
        <text fill="#414141" font-family="Avenir-Light, Avenir" font-size="11" font-weight="300" letter-spacing=".86">
            <tspan x="34" y="32">Overblik over din økonomi</tspan>
        </text>
    </g>
</svg>
