<svg xmlns="http://www.w3.org/2000/svg" width="46" height="46" viewBox="0 0 46 46">
    <g fill="none" fill-rule="evenodd">
        <path d="M0 0h46v46H0z"/>
        <path fill="#E5E5E5" d="M15 12.5a4.5 4.5 0 1 1-9 0 4.5 4.5 0 0 1 9 0z" opacity=".5"/>
        <path fill="#5E77FF" d="M37.839 34.129v7.902H34.87V46H3.71V7.42A3.714 3.714 0 0 1 0 3.71 3.714 3.714 0 0 1 3.71 0h30.419a3.714 3.714 0 0 1 3.71 3.71v30.419zm-1.484-30.42a2.228 2.228 0 0 0-2.226-2.225 2.228 2.228 0 0 0-2.226 2.226c0 1.227.999 2.225 2.226 2.225h.742v32.65h1.484V3.71zm-34.871 0c0-1.227.998-2.225 2.226-2.225h27.47a3.668 3.668 0 0 0-.76 2.226c0 .838.29 1.604.76 2.225H3.71A2.228 2.228 0 0 1 1.484 3.71zm3.71 40.807V7.42h28.193v37.097H5.194zm29.677-4.451V38.58h1.484v1.484H34.87zM16.323 14.839v-1.484h12.612v1.484H16.323zm-2.493 3.537L8.858 22.52l-1.963-1.963 1.05-1.05 1.005 1.005 3.93-3.275.95 1.14zm2.493.914v-1.484h15.58v1.484h-15.58zm0 2.968v-1.484h2.967v1.484h-2.967zm4.451 0v-1.484h11.13v1.484h-11.13zm-6.944 3.537L8.858 29.94l-1.963-1.962 1.05-1.05 1.005 1.005 3.93-3.276.95 1.14zm2.493.915v-1.484h15.58v1.484h-15.58zm0 2.967v-1.483h11.129v1.483h-11.13zm12.612 0v-1.483h2.968v1.483h-2.968zm0-17.806v-1.484h2.968v1.484h-2.968zm-15.105-.914L8.858 15.1l-1.963-1.963 1.05-1.05 1.005 1.005 3.93-3.276.95 1.14zm2.493.914v-1.484h11.129v1.484h-11.13z"/>
    </g>
</svg>
