<svg xmlns="http://www.w3.org/2000/svg" width="265" height="265" viewBox="0 0 265 265">
    <g fill="none" fill-rule="evenodd">
        <path fill="#FFF" d="M-819-423H621v2835H-819z"/>
        <path d="M100 100h64.4v64.4H100z"/>
        <path fill="#E5E5E5" d="M149 132.2c0 9.278-7.522 16.8-16.8 16.8s-16.8-7.522-16.8-16.8 7.522-16.8 16.8-16.8 16.8 7.522 16.8 16.8z" opacity=".5"/>
        <path fill="#5E77FF" d="M117.658 129.084c-9.737 0-17.658 7.921-17.658 17.658 0 9.737 7.921 17.658 17.658 17.658 9.737 0 17.658-7.921 17.658-17.658 0-9.737-7.921-17.658-17.658-17.658zm0 33.239c-8.591 0-15.58-6.99-15.58-15.581 0-8.59 6.989-15.58 15.58-15.58 8.591 0 15.58 6.99 15.58 15.58 0 8.591-6.989 15.58-15.58 15.58zm46.742-56.09h-5.824a3.315 3.315 0 0 0 1.67-2.889c0-1.844-1.5-3.344-3.345-3.344-1.428 0-2.83.491-3.944 1.384l-3.099 2.479-3.1-2.48a6.34 6.34 0 0 0-3.943-1.383 3.347 3.347 0 0 0-3.344 3.344c0 1.229.656 2.306 1.67 2.888h-5.825v8.31h3.116V132.2h22.852v-17.658h3.116v-8.31zm-13.503 2.077v4.155h-2.078v-4.155h.924l.115.025.115-.025h.924zm3.36-5.305a4.247 4.247 0 0 1 2.644-.928 1.268 1.268 0 0 1 .275 2.504l-6.77 1.504 3.85-3.08zm-11.442-.928c.958 0 1.897.33 2.645.928l3.85 3.08-6.77-1.504a1.268 1.268 0 0 1 .275-2.504zm-5.421 10.388h9.348v-4.155h-9.348v4.155zm3.116 17.658h6.232v-15.581h-6.232v15.58zm8.31 0h2.077v-15.581h-2.078v15.58zm4.154 0h6.232v-15.581h-6.232v15.58zm0-17.658v-4.155h9.349v4.155h-9.349zm-25.743-2.569c-8.619 1.912-15.423 8.717-17.334 17.335l-2.029-.45c2.086-9.403 9.51-16.827 18.914-18.913l.45 2.028zm9.938 44.607c8.619-1.91 15.423-8.715 17.334-17.334l2.029.45c-2.087 9.403-9.51 16.826-18.914 18.913l-.45-2.029z"/>
        <text fill="#5E77FF" font-family="Roboto-Medium, Roboto" font-size="18.2" font-weight="400" letter-spacing="-.014" transform="translate(100 100)">
            <tspan x="5.392" y="53.4">K</tspan> <tspan x="16.851" y="53.4">R</tspan>
        </text>
    </g>
</svg>
