<svg xmlns="http://www.w3.org/2000/svg" xmlns:xlink="http://www.w3.org/1999/xlink" width="360" height="260" viewBox="0 0 360 260">
    <defs>
        <linearGradient id="a" x1="50%" x2="50%" y1="0%" y2="100%">
            <stop offset="0%" stop-color="#FCFDFD"/>
            <stop offset="100%" stop-color="#EEF3F3"/>
        </linearGradient>
        <rect id="c" width="226" height="90" x="110" y="130" rx="4.2"/>
        <filter id="b" width="104%" height="110%" x="-2%" y="-5%" filterUnits="objectBoundingBox">
            <feOffset in="SourceAlpha" result="shadowOffsetOuter1"/>
            <feGaussianBlur in="shadowOffsetOuter1" result="shadowBlurOuter1" stdDeviation="1.5"/>
            <feColorMatrix in="shadowBlurOuter1" values="0 0 0 0 0 0 0 0 0 0 0 0 0 0 0 0 0 0 0.15 0"/>
        </filter>
    </defs>
    <g fill="none" fill-rule="evenodd">
        <circle cx="88.5" cy="198.5" r="29.5" fill="url(#a)"/>
        <rect width="266" height="161" x="88" y="89" fill="url(#a)" opacity=".8" rx="5"/>
        <rect width="253" height="147" x="95" y="98" fill="#FFF" rx="3"/>
        <circle cx="67.5" cy="70.5" r="18.5" fill="url(#a)"/>
        <circle cx="54.5" cy="133.5" r="5.5" fill="url(#a)"/>
        <circle cx="122.5" cy="25.5" r="2.5" fill="url(#a)"/>
        <circle cx="176" cy="68" r="4" fill="url(#a)"/>
        <circle cx="228" cy="38" r="7" fill="url(#a)"/>
        <circle cx="292" cy="89" r="17" fill="url(#a)"/>
        <text fill="#353A41" font-family="SourceSansPro-Semibold, Source Sans Pro" font-size="9.8" font-weight="500" letter-spacing=".204">
            <tspan x="131" y="203">Pension </tspan>
        </text>
        <circle cx="123.5" cy="200.5" r="3.5" fill="#2381FD"/>
        <text fill="#353A41" font-family="SourceSansPro-Semibold, Source Sans Pro" font-size="9.8" font-weight="500" letter-spacing=".204">
            <tspan x="211" y="203">Skat</tspan>
        </text>
        <circle cx="204.5" cy="200.5" r="3.5" fill="#FC656C"/>
        <text fill="#353A41" font-family="SourceSansPro-Semibold, Source Sans Pro" font-size="9.8" font-weight="500" letter-spacing=".204">
            <tspan x="275" y="203">Til rådighed</tspan>
        </text>
        <circle cx="268.5" cy="200.5" r="3.5" fill="#33D4C1"/>
        <use fill="#000" filter="url(#b)" xlink:href="#c"/>
        <use fill="#FFF" xlink:href="#c"/>
        <text fill="#9FA7B3" font-family="SourceSansPro-Regular, Source Sans Pro" font-size="8.4" letter-spacing=".175">
            <tspan x="119" y="185">38% skattetræk</tspan>
        </text>
        <text fill="#9FA7B3" font-family="SourceSansPro-Regular, Source Sans Pro" font-size="8.4" letter-spacing=".175">
            <tspan x="241.9" y="185">Skattefradrag: 1.750 kr. </tspan>
        </text>
        <text fill="#353A41" font-family="SourceSansPro-Semibold, Source Sans Pro" font-size="11.2" font-weight="500">
            <tspan x="119" y="151">Hvad går din løn til</tspan>
        </text>
        <rect width="208" height="7" x="119" y="162" fill="#DCE6F0" rx="3.5"/>
        <path fill="#2CC197" d="M220.5 162h103a3.5 3.5 0 1 1 0 7h-103a3.5 3.5 0 1 1 0-7z"/>
        <path fill="#FC656C" d="M158 162h66v7h-66z"/>
        <path fill="#2382FE" d="M122.5 162H157v7h-34.5a3.5 3.5 0 1 1 0-7z"/>
        <text fill="#353A41" font-family="SourceSansPro-Semibold, Source Sans Pro" font-size="9.8" font-weight="500" letter-spacing=".204">
            <tspan x="131" y="206">Pension </tspan>
        </text>
        <circle cx="123.5" cy="203.5" r="3.5" fill="#2381FD"/>
        <text fill="#353A41" font-family="SourceSansPro-Semibold, Source Sans Pro" font-size="9.8" font-weight="500" letter-spacing=".204">
            <tspan x="211" y="206">Skat</tspan>
        </text>
        <circle cx="204.5" cy="203.5" r="3.5" fill="#FC656C"/>
        <text fill="#353A41" font-family="SourceSansPro-Semibold, Source Sans Pro" font-size="9.8" font-weight="500" letter-spacing=".204">
            <tspan x="275" y="206">Til rådighed</tspan>
        </text>
        <circle cx="268.5" cy="203.5" r="3.5" fill="#33D4C1"/>
    </g>
</svg>
