<svg xmlns="http://www.w3.org/2000/svg" xmlns:xlink="http://www.w3.org/1999/xlink" width="360" height="260" viewBox="0 0 360 260">
    <defs>
        <linearGradient id="a" x1="50%" x2="50%" y1="0%" y2="100%">
            <stop offset="0%" stop-color="#FCFDFD"/>
            <stop offset="100%" stop-color="#EEF3F3"/>
        </linearGradient>
        <rect id="b" width="253" height="147" rx="3"/>
        <linearGradient id="c" x1="100%" x2="3.26%" y1="100%" y2="100%">
            <stop offset="0%" stop-color="#1767E4"/>
            <stop offset="100%" stop-color="#F4F7F7"/>
        </linearGradient>
    </defs>
    <g fill="none" fill-rule="evenodd">
        <circle cx="31" cy="197" r="17" fill="url(#a)"/>
        <circle cx="68.5" cy="61.5" r="18.5" fill="url(#a)"/>
        <circle cx="42.5" cy="161.5" r="5.5" fill="url(#a)"/>
        <circle cx="122.5" cy="25.5" r="2.5" fill="url(#a)"/>
        <circle cx="194.5" cy="237.5" r="2.5" fill="url(#a)"/>
        <circle cx="48.5" cy="217.5" r="2.5" fill="url(#a)"/>
        <circle cx="176" cy="68" r="4" fill="url(#a)"/>
        <circle cx="228" cy="38" r="7" fill="url(#a)"/>
        <circle cx="336" cy="237" r="5" fill="url(#a)"/>
        <circle cx="292" cy="228" r="8" fill="url(#a)"/>
        <circle cx="292" cy="89" r="17" fill="url(#a)"/>
        <rect width="266" height="161" x="61" y="53" fill="url(#a)" opacity=".8" rx="5"/>
        <g transform="translate(68 61)">
            <mask id="d" fill="#fff">
                <use xlink:href="#b"/>
            </mask>
            <use fill="#FFF" xlink:href="#b"/>
            <path fill="url(#c)" d="M0 151.136c15.913-16.55 30.565-24.825 43.954-24.825 20.083 0 42.019-30.84 62.308-21.827 20.29 9.013 26.718-27.633 51.8-18.862 25.08 8.771 29.495-18.77 47.146-18.77 19.788 0 53.792-45.76 53.792-27.946v112.23H0z" mask="url(#d)"/>
        </g>
    </g>
</svg>
