<svg xmlns="http://www.w3.org/2000/svg" width="45" height="40">
    <defs>
        <filter id="a" width="45" height="40" x="0" y="0" filterUnits="userSpaceOnUse">
            <feOffset dy="3" in="SourceAlpha"/>
            <feGaussianBlur result="blurOut" stdDeviation="2.236"/>
            <feFlood flood-color="#000" result="floodOut"/>
            <feComposite in="floodOut" in2="blurOut" operator="atop"/>
            <feComponentTransfer>
                <feFuncA slope=".78" type="linear"/>
            </feComponentTransfer>
            <feMerge>
                <feMergeNode/>
                <feMergeNode in="SourceGraphic"/>
            </feMerge>
        </filter>
    </defs>
    <path fill="#6973DA" fill-rule="evenodd" d="M19.404 16.322c-.808-.822-1.789-1.233-2.942-1.233h-4.846a1.986 1.986 0 0 1-1.472-.617 2.054 2.054 0 0 1-.605-1.497v-.705c0-1.555.54-2.884 1.622-3.985s2.387-1.652 3.916-1.652h1.385c.374 0 .699-.139.973-.418.274-.279.411-.609.411-.991V2.406c0-.382-.137-.712-.411-.991a1.32 1.32 0 0 0-.973-.419h-1.385c-1.5 0-2.932.298-4.295.892a11.165 11.165 0 0 0-3.537 2.411c-.995 1.013-1.785 2.213-2.369 3.6A11.158 11.158 0 0 0 4 12.27v15.502c0 1.175.404 2.173 1.212 2.995C6.019 31.589 7 32 8.154 32h8.308c1.153 0 2.134-.411 2.942-1.233.808-.822 1.211-1.82 1.211-2.995v-8.455c0-1.175-.403-2.173-1.211-2.995zm19.384 0c-.808-.822-1.788-1.233-2.942-1.233H31a1.986 1.986 0 0 1-1.471-.617 2.055 2.055 0 0 1-.606-1.497v-.705c0-1.555.541-2.884 1.623-3.985 1.082-1.101 2.387-1.652 3.915-1.652h1.385c.375 0 .7-.139.974-.418.274-.279.411-.609.411-.991V2.406c0-.382-.137-.712-.411-.991a1.32 1.32 0 0 0-.974-.419h-1.385c-1.5 0-2.931.298-4.294.892a11.154 11.154 0 0 0-3.537 2.411c-.995 1.013-1.785 2.213-2.369 3.6a11.158 11.158 0 0 0-.876 4.371v15.502c0 1.175.403 2.173 1.211 2.995.808.822 1.788 1.233 2.942 1.233h8.308c1.154 0 2.134-.411 2.942-1.233.808-.822 1.212-1.82 1.212-2.995v-8.455c0-1.175-.404-2.173-1.212-2.995z" filter="url(#a)"/>
</svg>
